<svg xmlns="http://www.w3.org/2000/svg" viewBox="0 0 3000 3000" width="3000" height="3000"><g transform="translate(1999.4117647058822 1390.5882352941176) rotate(0.0 408.52941176470597 338.82352941176464) scale(1.7633995194260232 1.7627411604345398)"><svg width="463.343" height="384.428" viewBox="0 0 463.343 384.428"><rect fill="#fff" height="376.428" rx="25" width="455.343" x="4" y="4"/><path d="M434.342 384.428H29c-15.991 0-29-13.009-29-29V29C0 13.009 13.009 0 29 0h405.342c15.991 0 29 13.009 29 29v326.428c0 15.991-13.009 29-29 29zM29 8C17.42 8 8 17.42 8 29v326.428c0 11.58 9.42 21 21 21h405.342c11.58 0 21-9.42 21-21V29c0-11.58-9.42-21-21-21z" fill="#3375e0"/><path d="M40.255 47.46h64.03v64.03h-64.03z" fill="#a8cffb"/><path d="M104.285 115.489H40.256a4 4 0 0 1-4-4V47.46a4 4 0 0 1 4-4h64.03a4 4 0 0 1 4 4v64.03a4 4 0 0 1-4 4zm-60.029-8h56.03v-56.03h-56.03z" fill="#3375e0"/><path d="m73.779 101.064-.102-.001a4.002 4.002 0 0 1-2.957-1.42L48.025 72.72a4.002 4.002 0 0 1 6.117-5.157l19.789 23.476 36.268-38.845a4 4 0 0 1 5.848 5.46l-39.344 42.14a4 4 0 0 1-2.924 1.27zm306.288-35.171H257.672a4 4 0 0 1 0-8h122.395a4 4 0 0 1 0 8zm-166.02 0h-76.345a4 4 0 0 1 0-8h76.345a4 4 0 0 1 0 8zm209.04 35.163H137.701a4 4 0 0 1 0-8h285.386a4 4 0 0 1 0 8z" fill="#3375e0"/><path d="M40.255 160.199h64.03v64.03h-64.03z" fill="#a8cffb"/><g fill="#3375e0"><path d="M104.285 228.229H40.256a4 4 0 0 1-4-4v-64.03a4 4 0 0 1 4-4h64.03a4 4 0 0 1 4 4v64.03a4 4 0 0 1-4 4zm-60.029-8h56.03v-56.03h-56.03z"/><path d="m73.779 213.803-.102-.001a4.002 4.002 0 0 1-2.957-1.42l-22.695-26.923a4.002 4.002 0 0 1 6.117-5.157l19.789 23.476 36.268-38.845a4 4 0 0 1 5.848 5.46l-39.344 42.14a4 4 0 0 1-2.924 1.27zm279.781-35.171h-52.262a4 4 0 0 1 0-8h52.262a4 4 0 0 1 0 8zm-95.887 0H137.702a4 4 0 0 1 0-8h119.971a4 4 0 0 1 0 8zm33.594 35.163H137.702a4 4 0 0 1 0-8h153.565a4 4 0 0 1 0 8zM104.285 340.968H40.256a4 4 0 0 1-4-4v-64.03a4 4 0 0 1 4-4h64.03a4 4 0 0 1 4 4v64.03a4 4 0 0 1-4 4zm-60.029-8h56.03v-56.03h-56.03zm368.275-41.596h-71.848a4 4 0 0 1 0-8h71.848a4 4 0 0 1 0 8zm-115.474 0H137.702a4 4 0 0 1 0-8h159.355a4 4 0 0 1 0 8zm80.039 35.162H137.701a4 4 0 0 1 0-8h239.395a4 4 0 0 1 0 8z"/></g></svg></g><g transform="translate(296.4705882352941 2657.6470588235293) rotate(-0.036025134720633456 1070.2941176470588 6.176470588235361) scale(1.7647058823529411 1.7647058823529602)"><svg width="1213" height="7" viewBox="0 0 1213 7"><line x2="100%" y1="50%" y2="50%" stroke-width="7" stroke="#3375E0" fill="#fff"/></svg></g><g transform="translate(1932.3529411764705 1046.4705882352941) rotate(0.0 408.52941176470597 117.35294117647061) scale(1.7633995194260232 1.7526351022502258)"><svg width="463.343" height="133.916" viewBox="0 0 463.343 133.916"><rect x="4" y="4" width="455.343" height="125.916" rx="25" ry="25" style="stroke-width:0;fill:#fff"/><path d="M434.342 133.916H29c-15.991 0-29-13.01-29-29V29C0 13.009 13.009 0 29 0h405.342c15.991 0 29 13.009 29 29v75.916c0 15.991-13.009 29-29 29ZM29 8C17.42 8 8 17.42 8 29v75.916c0 11.58 9.42 21 21 21h405.342c11.58 0 21-9.42 21-21V29c0-11.58-9.42-21-21-21H29Z" style="fill:#3375e0;stroke-width:0"/></svg></g><g transform="translate(254.11764705882354 480.0) rotate(0.0 463.235294117647 540.0) scale(1.7638558718090025 1.762057038438948)"><svg width="525.253" height="612.92" viewBox="0 0 525.253 612.92"><rect fill="#fff" height="604.92" rx="25" width="517.253" x="4" y="4"/><path d="M496.253 612.92H29c-15.991 0-29-13.01-29-29V29C0 13.009 13.009 0 29 0h467.253c15.991 0 29 13.009 29 29v554.92c0 15.991-13.009 29-29 29zM29 8C17.42 8 8 17.42 8 29v554.92c0 11.58 9.42 21 21 21h467.253c11.58 0 21-9.42 21-21V29c0-11.58-9.42-21-21-21z" fill="#3375e0"/><path d="M262.627 397.122c-86.228 0-156.379-70.151-156.379-156.379S176.4 84.364 262.627 84.364s156.379 70.151 156.379 156.379-70.151 156.379-156.379 156.379zm0-268.219c-61.669 0-111.84 50.171-111.84 111.84s50.171 111.84 111.84 111.84 111.839-50.171 111.839-111.84-50.171-111.84-111.839-111.84z" fill="#fff"/><g fill="#3375e0"><path d="M262.627 401.122c-88.433 0-160.379-71.946-160.379-160.379S174.194 80.364 262.627 80.364s160.378 71.946 160.378 160.379-71.945 160.379-160.378 160.379zm0-312.758c-84.022 0-152.379 68.357-152.379 152.379s68.357 152.379 152.379 152.379 152.378-68.357 152.378-152.379S346.649 88.364 262.627 88.364zm0 268.219c-63.875 0-115.84-51.965-115.84-115.84s51.965-115.84 115.84-115.84 115.839 51.965 115.839 115.84-51.965 115.84-115.839 115.84zm0-223.68c-59.463 0-107.84 48.377-107.84 107.84s48.377 107.84 107.84 107.84 107.839-48.377 107.839-107.84-48.376-107.84-107.839-107.84z"/><path d="M262.627 397.122c-41.77 0-81.041-16.266-110.577-45.802-8.697-8.697-8.697-22.797 0-31.494s22.797-8.697 31.494 0c21.124 21.124 49.209 32.757 79.083 32.757 61.668 0 111.839-50.171 111.839-111.84s-50.171-111.84-111.839-111.84c-12.299 0-22.27-9.971-22.27-22.27s9.97-22.27 22.27-22.27c86.228 0 156.379 70.151 156.379 156.379s-70.151 156.379-156.379 156.379z"/><path d="M262.627 401.122c-42.839 0-83.114-16.682-113.405-46.974-10.242-10.243-10.242-26.908 0-37.151 10.243-10.241 26.908-10.242 37.151 0 20.368 20.369 47.449 31.586 76.254 31.586 59.463 0 107.839-48.377 107.839-107.84s-48.376-107.84-107.839-107.84c-14.485 0-26.27-11.785-26.27-26.27s11.785-26.27 26.27-26.27c88.433 0 160.378 71.946 160.378 160.379S351.06 401.121 262.627 401.121zm-94.83-83.811a18.212 18.212 0 0 0-12.918 5.343c-7.124 7.124-7.124 18.714 0 25.837 28.78 28.781 67.046 44.631 107.748 44.631 84.022 0 152.378-68.357 152.378-152.379S346.649 88.364 262.627 88.364c-10.074 0-18.27 8.196-18.27 18.27s8.196 18.27 18.27 18.27c63.874 0 115.839 51.965 115.839 115.84s-51.965 115.84-115.839 115.84c-30.942 0-60.032-12.049-81.912-33.929a18.212 18.212 0 0 0-12.918-5.343zm217.781 152.462H139.675a4 4 0 0 1 0-8h245.903a4 4 0 0 1 0 8zm49.152 62.782H90.523a4 4 0 0 1 0-8h344.208a4 4 0 0 1 0 8z"/></g></svg></g><g transform="translate(363.52941176470586 919.4117647058823) rotate(0.0 1000.5882352941176 875.2941176470588) scale(1.764765019099613 1.7663618465841135)"><svg width="1133.962" height="991.07" viewBox="0 0 1133.962 991.07"><path d="M805.834 987.07c-4.857-70.997-46.718-258.079-82.624-288.116-136.766-73.595-40.119-276.832 103.618-216.428 76.907 34.945 133.749 117.822 173.772 253.367 26.518 89.809 41.021 191.578 45.413 251.177z" fill="#a8cffb"/><path d="M1046.013 991.07H805.834a4.001 4.001 0 0 1-3.991-3.728c-2.501-36.565-14.652-101.816-29.547-158.677-17.671-67.457-36.368-113.456-51.355-126.391-72.514-39.257-79.205-112.265-54.691-163.568 13.48-28.212 35.841-50.189 62.963-61.882 30.476-13.137 64.766-12.441 99.165 2.015l.105.046c78.028 35.454 135.583 119.152 175.953 255.876 26.551 89.921 41.141 191.959 45.566 252.016a4 4 0 0 1-3.99 4.294zm-236.468-8.001h232.151c-4.76-60.146-19.183-158.839-44.933-246.043-39.664-134.332-95.777-216.383-171.537-250.834-32.328-13.572-64.432-14.271-92.846-2.021-25.344 10.926-46.266 31.519-58.912 57.984-12.65 26.476-15.54 55.716-8.134 82.335 8.299 29.834 28.968 54.365 59.771 70.941a4 4 0 0 1 .671.455c22.292 18.648 43.563 89.925 54.258 130.752 14.517 55.416 26.454 118.846 29.51 156.431z" fill="#3375e0"/><path d="M32.938 931.96c-39.266-60.582-34.997-141.288-8.511-211.347 39.707-110.448 140.251-222.362 251.53-254.285 152.589-41.955 219.853 180.016 69.491 229.719-19.871 6.011-43.748 25.229-63.787 51.022" fill="#a8cffb"/><path d="M32.942 935.961a3.994 3.994 0 0 1-3.36-1.825C10.548 904.77.604 869.699.026 829.899c-.513-35.313 6.631-73.593 20.66-110.7 20.047-55.764 55.492-111.879 99.784-157.947 47.316-49.214 100.701-83.368 154.384-98.768 36.549-10.051 70.972-6.017 99.592 11.653 25.418 15.693 44.489 41.102 53.7 71.547 9.208 30.438 7.421 62.146-5.034 89.283-14.025 30.557-40.447 52.992-76.408 64.879l-.097.031c-19.002 5.748-42.099 24.308-61.786 49.648a4 4 0 0 1-6.318-4.908c20.649-26.579 45.218-46.156 65.737-52.382 52.494-17.375 98.734-69.91 76.249-144.233-15.775-52.14-67.401-98.73-143.471-77.815-52.287 15-104.441 48.412-150.781 96.611-43.528 45.275-78.348 100.382-98.044 155.17-13.699 36.237-20.665 73.498-20.166 107.816.556 38.272 10.067 71.918 28.269 100.002a3.999 3.999 0 0 1-3.352 6.176z" fill="#3375e0"/><path d="M254.267 473.577c59.459-19.27 134.222-27.371 204.441-25.222s160.9 3.267 224.126 7.448 107.023 8.764 149.972 28.944c40.978 19.254-.149 404.237-20.713 502.322H311.524s-22.392-212.931-41.151-304.109" fill="#a8cffb"/><path d="M812.093 991.07H311.525a4 4 0 0 1-3.978-3.582c-.224-2.127-22.587-213.78-41.091-303.721a4 4 0 1 1 7.836-1.612c17.25 83.842 37.791 272.552 40.83 300.915h493.712c11.759-58.029 31.925-207.41 39.187-327.677a3.999 3.999 0 0 1 4.234-3.751 4 4 0 0 1 3.751 4.234c-7.42 122.896-28.296 276.205-39.997 332.016a4 4 0 0 1-3.915 3.179zm28.016-497.896a3.98 3.98 0 0 1-1.983-.529c-41.217-23.591-94.834-28.835-155.557-32.851-44.771-2.96-102.709-4.368-158.74-5.728-23.053-.56-44.828-1.088-65.244-1.713-87.113-2.665-156.207 6.062-205.354 25.94-2.05.83-4.38-.16-5.208-2.208a4 4 0 0 1 2.208-5.208c50.184-20.297 120.365-29.219 208.6-26.521 20.391.624 42.153 1.152 65.193 1.712 56.113 1.362 114.136 2.771 159.074 5.743 61.73 4.082 116.303 9.45 159.002 33.89a4 4 0 0 1-1.991 7.472z" fill="#3375e0"/><path d="M626.65 455.804c13.922 1.335 56.184 0 56.184 0s-26.692 88.529-113.442 92.088c-86.749 3.559-113.711-65.167-110.685-99.536h30.59l137.352 7.448z" fill="#fff"/><path d="M563.035 552.023c-41.695 0-66.851-16.928-80.796-31.542-21.438-22.466-29.267-52.589-27.515-72.478a4 4 0 0 1 3.984-3.649h30.59c.072 0 .145.002.217.006l137.352 7.448.165.012c13.508 1.295 55.255-.003 55.676-.016 1.282-.05 2.515.541 3.299 1.562s1.028 2.358.657 3.591c-.281.933-7.091 23.106-24.859 46.006-16.502 21.269-45.901 47.022-92.248 48.923a159.06 159.06 0 0 1-6.522.135zm-100.54-99.668c-.402 17.996 7.104 43.292 25.532 62.604 19.385 20.314 47.46 30.322 81.202 28.936 34.745-1.425 63.765-16.846 86.255-45.834 11.83-15.247 18.604-30.356 21.617-38.094-12.144.314-39.678.872-50.749-.173l-137.162-7.438h-26.695z" fill="#3375e0"/><path d="M489.298 452.245v-41.53H626.65v63.328" fill="#fff"/><path d="M626.65 478.043a4 4 0 0 1-4-4v-59.328H493.298v37.529a4 4 0 0 1-8 0v-41.529a4 4 0 0 1 4-4H626.65a4 4 0 0 1 4 4v63.328a4 4 0 0 1-4 4z" fill="#3375e0"/><path d="M569.392 547.892c-24.88-33.893-80.095-44.559-103.135-99.971l23.041.435v-37.64c0-40.161-92.116-41.46-97.309 31.664-3.953 55.673 81.963 122.247 152.524 126.142" fill="#a8cffb"/><path d="M544.516 572.522c-.074 0-.149-.002-.224-.006-43.871-2.422-96.936-29.558-129.043-65.99-19.268-21.863-28.691-44.143-27.25-64.43 1.458-20.526 9.679-37.371 23.777-48.714 11.775-9.474 27.327-14.587 42.66-14.052 22.881.812 38.861 13.718 38.861 31.385v37.64a4.001 4.001 0 0 1-1.198 2.855c-.767.752-1.786 1.136-2.877 1.145l-16.733-.316c13.846 28.643 36.848 44.03 59.135 58.938 15.795 10.566 30.715 20.545 40.993 34.547a4 4 0 0 1-6.449 4.735c-9.446-12.868-23.797-22.468-38.992-32.632-23.549-15.752-50.241-33.607-64.612-68.17-.519-1.247-.373-2.671.387-3.787s2.031-1.781 3.381-1.748l18.965.358v-33.564c0-15.395-15.643-22.84-31.145-23.39-26.059-.927-55.38 15.999-58.174 55.337-1.267 17.842 7.708 38.644 25.272 58.574 30.803 34.952 81.581 60.979 123.481 63.291a4 4 0 0 1-.217 7.994z" fill="#3375e0"/><path d="M554.531 558.785c22.068-35.699 94.765-31.805 112.301-102.593l-40.183-.389v-45.088s21.117-27.702 63.526-18.205c55.287 12.381 73.536 42.292 63.399 68.572-21.016 54.486-82.86 94.457-165.301 107.439" fill="#a8cffb"/><path d="M588.27 572.522a4 4 0 0 1-.617-7.951c81.145-12.778 141.776-52.003 162.191-104.927 3.697-9.585 3.104-19.413-1.715-28.423-8.478-15.849-29.369-28.21-58.826-34.807-34.992-7.838-54.543 11.186-58.652 15.765v39.664l36.221.35a4.002 4.002 0 0 1 3.845 4.962c-11.189 45.164-43.555 60.965-72.111 74.905-17.56 8.573-32.725 15.976-40.67 28.829a4 4 0 0 1-6.805-4.207c9.162-14.82 26.067-23.073 43.966-31.811 25.89-12.639 55.096-26.899 66.508-64.729l-34.992-.338a4 4 0 0 1-3.961-4v-45.088c0-.876.288-1.728.819-2.425.926-1.214 23.182-29.627 67.582-19.684 40.711 9.117 57.346 26.154 64.132 38.84 5.95 11.124 6.685 23.252 2.125 35.075-21.454 55.621-84.411 96.724-168.411 109.951-.21.033-.42.049-.627.049z" fill="#3375e0"/><path d="M544.45 442.823c12.245 2.88 23.807 4.337 33.528 4.891 70.637 4.025 115.413-28.986 134.956-61.643 16.852-28.159 23.565-53.323 26.241-97.574 5.67-93.761-12.081-178.555-140.302-186.309-128.222-7.754-156.061 74.284-161.731 168.045-2.591 42.847 1.704 78.869 14.803 105.506 9 18.302 22.629 31.556 37.351 41.839l.002 16.977" fill="#fff"/><g fill="#3375e0"><path d="M589.72 452.053c-3.94 0-7.928-.115-11.97-.345-11.224-.64-23.056-2.365-34.216-4.991a4.001 4.001 0 0 1 1.832-7.788c10.716 2.521 22.071 4.178 32.839 4.791 31.736 1.807 60.183-3.78 84.547-16.611 19.738-10.395 36.34-25.698 46.749-43.092 16.542-27.643 23.022-51.806 25.68-95.761 3.359-55.549-2.807-94.682-19.405-123.151-21.08-36.158-59.398-55.432-117.146-58.924-57.752-3.492-98.11 11.024-123.393 44.378-19.908 26.263-30.744 64.366-34.104 119.916-2.652 43.854 2.193 78.677 14.399 103.5 7.633 15.521 19.426 28.711 36.052 40.324a3.999 3.999 0 0 1 1.709 3.279l.002 16.977a4 4 0 0 1-8 0v-14.909c-16.87-12.117-28.964-25.918-36.942-42.142-12.827-26.083-17.942-62.256-15.206-107.513 3.459-57.199 14.807-96.685 35.713-124.265 27.023-35.648 69.625-51.195 130.251-47.531 60.623 3.666 101.044 24.234 123.574 62.88 17.431 29.898 23.938 70.464 20.479 127.663-2.712 44.845-9.725 70.853-26.801 99.387-11.151 18.634-28.868 34.993-49.886 46.062-22.544 11.873-48.321 17.866-76.76 17.866z"/><path d="M680.471 302.75c-11.776-6.201-24.002-8.974-38.901-11.643-9.553-1.711-9.375-12.562 4.303-17.728 12.855-4.856 37.449 1.886 44.898 13.92 7.771 12.554-.69 20.513-10.301 15.451z"/><path d="M686.218 308.291c-2.453 0-5.063-.66-7.611-2.002-10.793-5.684-22.012-8.427-37.742-11.245-5.653-1.013-9.444-4.67-9.894-9.543-.463-5.031 2.836-11.841 13.488-15.864 13.885-5.245 41.003 1.487 49.713 15.556 5.528 8.93 3.913 15.956.558 19.552-2.188 2.347-5.207 3.546-8.512 3.546zm-3.883-9.08c2.696 1.419 5.265 1.45 6.545.078 1.278-1.37 1.65-4.781-1.509-9.885-5.684-9.182-27.374-17.082-40.084-12.283-6.419 2.425-8.51 5.901-8.349 7.646.153 1.656 2.385 2.232 3.338 2.403 16.503 2.957 28.349 5.875 40.059 12.042zm-130.686-6.49c-13.264 1.086-25.069 5.306-39.074 11.048-8.979 3.682-14.651-5.57-5.881-17.269 8.243-10.995 32.614-18.502 45.357-12.344 13.294 6.424 10.424 17.68-.402 18.566z"/><path d="M508.733 308.587c-3.256 0-6.148-1.326-8.11-3.863-3.091-3.997-3.96-11.514 2.87-20.625 8.903-11.875 35.399-20.745 50.298-13.547 9.457 4.57 11.862 11.365 10.961 16.201-1.024 5.495-6.04 9.402-12.777 9.954-12.156.995-23.096 4.699-37.883 10.762-1.832.751-3.646 1.118-5.359 1.118zm32.059-32.601c-10.792 0-24.831 4.821-30.897 12.913-4.116 5.49-4.015 9.545-2.943 10.931 1.017 1.315 3.21.604 4.106.237 15.514-6.36 27.076-10.253 40.266-11.333 3.037-.249 5.221-1.601 5.565-3.446.343-1.842-1.173-4.92-6.578-7.532-2.485-1.201-5.812-1.771-9.519-1.771z"/><ellipse cx="656.861" cy="325.013" rx="10.311" ry="8.661" transform="matrix(.06036912 -.99817612 .99817612 .06036912 292.792 961.058)"/><ellipse cx="542.923" cy="320.735" rx="10.311" ry="8.661" transform="matrix(.06036912 -.99817612 .99817612 .06036912 190.001 843.307)"/><path d="M566.075 402.894c-15.907 0-32.202-7.216-39.154-19.35a4 4 0 1 1 6.941-3.977c7.989 13.942 33.957 19.825 49.618 11.242a4 4 0 0 1 3.846 7.016c-6.313 3.46-13.739 5.07-21.25 5.07zM441.98 260.316c12.377-24.822 16.746-164.487 138.58-158.781 165.751 7.764 136.865 139.174 153.131 180.503 3.52 8.944 27.67 4.848 30.961-12.071 9.216-47.38 13.49-131.845-47.996-179.015-84.036-64.469-203.919-52.149-260.573-1.091-49.747 44.834-56.088 113.306-45.097 164.312 8.448 39.206 30.993 6.143 30.993 6.143z"/><path d="M742.954 290.649c-6.333 0-11.21-2.636-12.985-7.146-3.603-9.155-5.056-22.019-6.739-36.914-3.079-27.255-6.91-61.174-25.855-88.851-22.237-32.484-60.509-49.562-117.002-52.208-95.696-4.487-116.417 83.883-127.559 131.356-2.641 11.255-4.728 20.145-7.255 25.213a3.995 3.995 0 0 1-.275.469c-1.176 1.725-11.825 16.783-23.255 14.551-7.158-1.4-12.049-8.63-14.953-22.104-6.134-28.466-6.213-59.07-.224-86.176 7.322-33.137 22.985-60.709 46.553-81.949 29.297-26.404 73.975-42.37 122.578-43.804 52.697-1.567 103.512 14.317 143.107 44.692 27.954 21.445 45.457 52.38 52.022 91.947 5.771 34.776 1.807 68.684-2.535 91.005-2.404 12.36-13.821 18.936-23.411 19.814-.755.069-1.494.104-2.214.104zM573.467 97.367c2.396 0 4.822.058 7.28.173 59.17 2.771 99.479 20.984 123.229 55.68 20.07 29.319 24.025 64.335 27.203 92.472 1.619 14.332 3.017 26.709 6.234 34.882.583 1.481 3.535 2.324 7.024 2.005 9.574-.878 15.155-7.549 16.289-13.375 4.216-21.676 8.071-54.567 2.495-88.168-6.223-37.5-22.708-66.74-49-86.909-38.139-29.258-87.142-44.547-138.002-43.043-46.736 1.379-89.548 16.597-117.458 41.75-22.305 20.103-37.142 46.255-44.097 77.733-5.746 26.007-5.664 55.4.233 82.765 2.036 9.446 5.193 15.255 8.664 15.938 4.853.962 12.053-6.837 14.959-10.981 2.071-4.327 4.13-13.1 6.507-23.228 5.546-23.633 13.928-59.349 33.477-88.184 22.289-32.875 54.212-49.508 94.964-49.508zM441.98 260.316h.01z"/></g><path d="M733.691 282.039c10.865-16.412 32.127-23.457 51.065-15.764 21.598 8.774 31.994 33.395 23.221 54.993-8.774 21.598-33.395 31.994-54.993 23.221-7.623-3.097-14.19-8.273-18.672-14.488-1.218 5.934-2.535 11.69-4.022 17.138" fill="#fff"/><path d="M768.875 351.617c-5.887 0-11.777-1.141-17.396-3.423a48.217 48.217 0 0 1-14.933-9.61 240.732 240.732 0 0 1-2.397 9.607 4 4 0 0 1-7.718-2.106c1.347-4.935 2.643-10.459 3.963-16.889a4 4 0 0 1 7.163-1.535c4.106 5.694 10.119 10.354 16.932 13.121 9.456 3.841 19.841 3.77 29.245-.2 9.402-3.97 16.696-11.364 20.537-20.82 7.93-19.521-1.5-41.852-21.02-49.781-16.793-6.822-36.234-.823-46.224 14.266a3.999 3.999 0 1 1-6.67-4.416c12.083-18.253 35.596-25.514 55.906-17.262 23.607 9.589 35.011 36.597 25.421 60.204-4.646 11.436-13.466 20.378-24.837 25.18-5.784 2.442-11.876 3.665-17.971 3.665z" fill="#3375e0"/><path d="M759.492 316.291a3.999 3.999 0 0 1-1.944-7.497l24.457-13.577a4 4 0 1 1 3.882 6.994l-24.457 13.577a3.975 3.975 0 0 1-1.938.503z" fill="#3375e0"/><path d="M778.144 323.869a4 4 0 0 1-3.665-2.394l-12.555-28.612a4 4 0 0 1 7.327-3.215l12.555 28.612a4 4 0 0 1-3.661 5.609z" fill="#3375e0"/><path d="M445.798 268.149c-7.674-21.761-32.532-30.906-52.243-25.493-22.48 6.174-35.698 29.402-29.524 51.882s29.402 35.698 51.882 29.524c7.934-2.179 15.865-6.232 21.046-11.877.235 4.644.81 10.364 1.607 16.785" fill="#fff"/><path d="M438.56 332.971a4.002 4.002 0 0 1-3.965-3.508 351.512 351.512 0 0 1-1.021-9.108c-4.67 3.244-10.349 5.848-16.604 7.566-11.902 3.268-24.365 1.707-35.093-4.398s-18.437-16.022-21.706-27.925c-3.269-11.902-1.707-24.365 4.398-35.093s16.022-18.437 27.924-21.705c20.692-5.686 48.397 3.414 57.075 28.02a4.002 4.002 0 0 1-2.442 5.103 4.003 4.003 0 0 1-5.103-2.442c-5.564-15.778-25.274-29.043-47.411-22.966-20.317 5.58-32.307 26.649-26.727 46.965 2.703 9.842 9.077 18.042 17.947 23.09s19.176 6.339 29.018 3.637c7.916-2.174 14.898-6.083 19.159-10.725a4 4 0 0 1 6.942 2.503c.215 4.257.732 9.653 1.581 16.495a4 4 0 0 1-3.975 4.493z" fill="#3375e0"/><path d="M415.253 295.388a3.98 3.98 0 0 1-2.335-.756l-22.691-16.357a4 4 0 1 1 4.677-6.489l22.691 16.357a4 4 0 0 1-2.342 7.245z" fill="#3375e0"/><path d="M395.838 300.72a4.002 4.002 0 0 1-3.445-6.028l15.831-26.938a4.001 4.001 0 0 1 6.898 4.054l-15.831 26.938a3.999 3.999 0 0 1-3.453 1.974z" fill="#3375e0"/><path d="M740.087 244.329c11.817-1.736 27.276-7.12 41.43-14.239 3.748-18.575 2.726-40.921.069-64.561 11.89 18.542 16.229 34.022 18.572 53.527 6.246-4.402 11.476-9.037 14.962-13.624C800.479 148.264 765.588 3.938 597.018 4c-188.246.069-214.629 152.616-214.629 212.827 0 0 35.809 17.834 58.538 15.722 0 0 7.568-44.492 17.58-61.98 10.012-17.489 257.999-22.434 266.898 4.663 8.899 27.098 14.681 69.097 14.681 69.097z" fill="#a8cffb"/><path d="M740.086 248.329a4.002 4.002 0 0 1-3.963-3.454c-.058-.417-5.838-41.96-14.519-68.395-.171-.521-2.315-5.206-24.677-9.434-35.775-6.766-95.291-7.698-139.059-6.314-64.236 2.03-92.883 8.355-95.927 11.887-9.526 16.717-16.998 60.164-17.072 60.601a4 4 0 0 1-3.573 3.312c-1.382.128-2.81.189-4.266.189-23.385.002-55.01-15.608-56.426-16.313a4 4 0 0 1-2.217-3.581c0-22.399 3.643-80.018 37.383-131.169 17.025-25.811 39.375-46.125 66.429-60.38C514.002 8.521 552.632.017 597.017 0h.109c72.741 0 129.514 26.693 168.748 79.34 32.174 43.173 44.957 93.171 52.595 123.044l.526 2.055a4.002 4.002 0 0 1-.69 3.413c-3.592 4.726-8.922 9.596-15.842 14.473a3.999 3.999 0 0 1-6.276-2.793c-1.489-12.396-3.725-23.333-8.851-35.021 1.271 19.054.64 33.792-1.898 46.369a3.997 3.997 0 0 1-2.124 2.782c-14.697 7.393-30.639 12.859-42.646 14.624a4.07 4.07 0 0 1-.582.042zm-147.311-96.151c29.413 0 57.669 1.171 79.938 3.435 15.655 1.592 28.212 3.687 37.323 6.228 11.401 3.179 17.492 7.038 19.168 12.143 7.376 22.462 12.55 54.391 14.247 65.695 10.148-2.049 22.635-6.485 34.509-12.291 2.797-15.374 2.68-34.449-.352-61.412a4 4 0 0 1 7.342-2.606c11.229 17.513 15.781 32.383 18.247 48.376 3.032-2.473 5.557-4.9 7.55-7.257l-.031-.122C795.691 145.603 760.498 8.001 597.124 8.001h-.107c-79.936.029-138.67 27.64-174.569 82.063-31.355 47.535-35.765 101.011-36.045 124.245 7.607 3.536 33.046 14.686 51.142 14.413 1.951-10.626 8.708-44.802 17.49-60.14 1.762-3.079 6.544-6.684 28.646-10.082 14.243-2.189 33.534-3.929 55.787-5.031 17.478-.866 35.604-1.291 53.307-1.291z" fill="#3375e0"/><path d="M436.423 216.827c13.035 6.958 33.991 11.879 59.116 15.117 2.958-19.293 15.865-36.907 34.852-53.494-2.29 20.969-1.032 40.486 7.021 57.222 80.259 4.491 178.249-2.948 209.631-14.318 0-58.615-55.008-127.259-155.31-127.295-105.575-.038-152.436 58.052-155.31 122.768z" fill="#a8cffb"/><path d="M586.758 240.966c-16.972 0-33.751-.416-49.569-1.301a4 4 0 0 1-3.381-2.259c-6.495-13.497-9.208-29.625-8.226-49.069-15.275 14.986-23.835 29.516-26.089 44.213a4.001 4.001 0 0 1-4.465 3.361c-27.422-3.535-47.773-8.768-60.488-15.556a3.999 3.999 0 0 1-2.112-3.706c1.582-35.607 15.576-66.2 40.472-88.471 27.876-24.938 68.938-38.12 118.735-38.12h.101c59.616.021 97.071 23.261 117.994 42.753 26.256 24.461 41.315 56.733 41.315 88.542a4 4 0 0 1-2.637 3.761c-26.266 9.517-95.417 15.853-161.648 15.853zm-46.72-9.157c80.843 4.275 171.428-3.329 202.962-13.31-.875-28.672-14.878-57.617-38.725-79.833-19.872-18.513-55.528-40.586-112.543-40.607h-.098c-47.802 0-87.013 12.476-113.401 36.083-22.656 20.268-35.651 47.989-37.676 80.298 11.389 5.491 28.763 9.869 51.747 13.039 3.837-17.518 15.474-34.583 35.456-52.04a3.998 3.998 0 0 1 6.608 3.446c-2.35 21.517-.495 38.863 5.67 52.925zM527.61 367.343c-34.066 0-61.781-27.715-61.781-61.781s27.715-61.781 61.781-61.781 61.781 27.715 61.781 61.781-27.715 61.781-61.781 61.781zm0-115.562c-29.655 0-53.781 24.126-53.781 53.781s24.126 53.781 53.781 53.781 53.781-24.126 53.781-53.781-24.126-53.781-53.781-53.781zm138.824 114.307h-.024c-34.066-.013-61.771-27.738-61.757-61.804.013-34.058 27.726-61.758 61.78-61.758h.024c34.066.013 61.771 27.739 61.758 61.805-.013 34.058-27.726 61.757-61.781 61.757zm-.001-115.562c-29.647 0-53.769 24.111-53.78 53.761-.011 29.655 24.105 53.79 53.76 53.801h.021c29.647.002 53.77-24.111 53.781-53.76.011-29.655-24.105-53.791-53.761-53.802z" fill="#3375e0"/><path d="M585.391 305.562h23.261" fill="#fff"/><path d="M608.652 309.562h-23.261a4 4 0 0 1 0-8h23.261a4 4 0 0 1 0 8z" fill="#3375e0"/><path d="m724.214 304.329 15.873-29.823" fill="#fff"/><path d="M724.211 308.33a4.002 4.002 0 0 1-3.528-5.881l15.872-29.823a4.002 4.002 0 0 1 7.063 3.759l-15.872 29.823a4.001 4.001 0 0 1-3.535 2.122z" fill="#3375e0"/><path d="m469.829 305.562-31.582-50.167" fill="#fff"/><path d="M469.833 309.563a3.997 3.997 0 0 1-3.389-1.87l-31.582-50.167a4 4 0 0 1 6.77-4.262l31.582 50.167a4 4 0 0 1-3.381 6.131z" fill="#3375e0"/><path d="M436.757 793.187c35.406-3.539 69.417-1.077 96.899 5.42 98.075 22.909 74.119 167.449-25.892 157.703-34.145-7.335-51.629-9.07-86.429-3.814" fill="#fff"/><path d="M517.363 960.785c-3.239 0-6.564-.161-9.986-.495a4.044 4.044 0 0 1-.452-.07c-34.059-7.315-51.114-8.886-84.991-3.77-2.185.332-4.222-1.174-4.552-3.358s1.173-4.223 3.358-4.552c35.035-5.292 52.656-3.695 87.639 3.81 22.064 2.101 41.712-3.571 56.833-16.402 13.576-11.52 22.751-28.178 25.837-46.906 3.086-18.729-.263-37.446-9.43-52.704-10.25-17.062-27.15-28.762-48.872-33.836-28.55-6.749-62.495-8.643-95.592-5.335a4 4 0 0 1-.796-7.96c33.956-3.396 68.837-1.438 98.218 5.507 23.867 5.575 42.508 18.544 53.899 37.503 10.143 16.883 13.86 37.525 10.466 58.124-5.771 35.023-33.593 70.44-81.579 70.443z" fill="#3375e0"/><path d="M533.657 798.607c67.447 14.762 84.356 31.006 104.805 49.113 65.36 57.876 16.723 110.03-37.49 44.027l-39.312-15.644" fill="#fff"/><path d="M649.054 926.541c-15.385 0-33.742-11.322-50.512-31.456l-38.361-15.266a3.999 3.999 0 1 1 2.958-7.432l39.312 15.644c.628.25 1.183.655 1.612 1.177 12.104 14.737 29.664 29.353 44.824 29.354 1.584 0 3.139-.159 4.662-.495 5.898-1.299 10.013-5.355 11.587-11.419 3.058-11.779-3.041-32.659-29.326-55.934l-1.641-1.455c-19.718-17.494-36.747-32.602-101.367-46.745a4 4 0 0 1 1.711-7.816c66.658 14.59 85.266 31.099 104.966 48.576l1.635 1.45c24.623 21.803 36.498 45.703 31.766 63.933-2.334 8.994-8.753 15.271-17.61 17.223-2.006.442-4.083.66-6.216.66z" fill="#3375e0"/><path d="M550.782 859.914c44.695 15.63 56.296 56.74 47.548 80.601-7.777 21.21-34.603 25.808-46.057 20.302-12.148-5.839-28.134-20.776-28.134-20.776" fill="#fff"/><path d="M563.276 966.943c-4.78 0-9.227-.834-12.736-2.522-12.555-6.035-28.461-20.831-29.132-21.458a4 4 0 0 1 5.461-5.846c.156.146 15.688 14.591 27.136 20.094 4.582 2.202 13.847 2.812 23.365-1.053 5.875-2.385 13.63-7.274 17.203-17.021 4.228-11.532 3.001-26.354-3.281-39.647-5.468-11.57-17.164-27.173-41.832-35.8a4 4 0 0 1 2.64-7.552c27.281 9.541 40.304 26.982 46.424 39.934 7.179 15.19 8.509 32.319 3.559 45.819-3.574 9.749-11.282 17.448-21.705 21.679-5.516 2.239-11.536 3.373-17.104 3.373z" fill="#3375e0"/><path d="M526.992 907.895c25.552 9.01 44.768 25.526 35.484 51.746-10.221 28.865-45.048 26.647-67.563 20.73-17.477-4.593-8.919-43.316 20.782-35.898" fill="#fff"/><path d="M521.496 988.04c-11.095 0-21.467-2.188-27.6-3.8-9.422-2.476-14.093-12.732-11.106-24.386 3.216-12.548 15.188-23.929 33.875-19.262a4 4 0 0 1-1.938 7.762c-9.699-2.424-20.938.809-24.186 13.486-1.581 6.167-.237 13.184 5.39 14.663 7.779 2.044 22.884 5.101 36.664 2.61 13.289-2.403 22.074-9.403 26.112-20.807 2.961-8.363 2.835-16.009-.374-22.726-4.659-9.751-15.956-18.02-32.669-23.913a4 4 0 0 1 2.661-7.545c18.76 6.615 31.633 16.3 37.228 28.009 4.158 8.702 4.393 18.407.697 28.844-4.995 14.106-16.14 23.1-32.23 26.01-4.152.75-8.387 1.054-12.521 1.055z" fill="#3375e0"/><path d="M132.644 766.918c37.98-18.603 120.141-20.153 149.017-19.848h98.154c158.28 4.01 158.223 236.017 0 240H133.88a120 120 0 0 1-100.941-55.109" fill="#a8cffb"/><path d="M379.815 991.07H133.88c-42.39 0-81.383-21.289-104.306-56.946a4 4 0 0 1 6.73-4.326c21.444 33.357 57.921 53.272 97.577 53.272h245.885c55.267-1.413 114.733-38.307 114.739-115.996.004-54.461-35.896-113.985-114.74-116.004h-98.103c-10.905-.115-39.54-.07-70.726 2.817-34.848 3.226-60.597 8.818-76.532 16.624a4 4 0 1 1-3.519-7.185c41.558-20.356 132.925-20.445 150.818-20.256h98.112l.101.001c37.861.959 69.646 14.783 91.919 39.979 19.78 22.375 30.671 52.215 30.669 84.024-.002 31.81-10.899 61.651-30.682 84.026-22.275 25.194-54.056 39.015-91.907 39.968l-.101.001z" fill="#3375e0"/><rect fill="#3375e0" height="22.068" rx="7" width="546.036" x="328.364" y="965.001"/><path d="M867.401 991.07H335.364c-6.065 0-11-4.935-11-11v-8.069c0-6.065 4.935-11 11-11h532.037c6.065 0 11 4.935 11 11v8.069c0 6.065-4.935 11-11 11zm-532.037-22.069c-1.654 0-3 1.346-3 3v8.069c0 1.654 1.346 3 3 3h532.037c1.654 0 3-1.346 3-3v-8.069c0-1.654-1.346-3-3-3z" fill="#3375e0"/><rect fill="#3375e0" height="363.828" rx="20.198" width="546.036" x="328.364" y="601.173"/><path d="M854.203 969.001H348.562c-13.343 0-24.198-10.855-24.198-24.197V621.371c0-13.342 10.855-24.197 24.198-24.197h505.641c13.343 0 24.198 10.855 24.198 24.197v323.433c0 13.342-10.855 24.197-24.198 24.197zM348.562 605.173c-8.932 0-16.198 7.266-16.198 16.197v323.433c0 8.931 7.266 16.197 16.198 16.197h505.641c8.932 0 16.198-7.266 16.198-16.197V621.37c0-8.931-7.266-16.197-16.198-16.197z" fill="#3375e0"/><path d="M854.203 969.001H348.562c-6.464 0-12.541-2.517-17.11-7.087a4 4 0 0 1 5.657-5.657 16.09 16.09 0 0 0 11.453 4.744h505.641c5.199 0 9.954-2.403 13.045-6.593a4 4 0 1 1 6.437 4.749c-4.547 6.164-11.831 9.844-19.482 9.844z" fill="#fff"/><path d="M1011.445 911.477h16.334c33.008 0 59.806 26.798 59.806 59.806v15.787H951.64v-15.787c0-33.008 26.798-59.806 59.806-59.806z" fill="#3375e0"/><path d="M1087.585 991.07H951.64a4 4 0 0 1-4-4v-15.788c0-35.182 28.623-63.805 63.805-63.805h16.334c35.182 0 63.805 28.623 63.805 63.805v15.788a4 4 0 0 1-4 4zm-131.945-8h127.945v-11.788c0-30.771-25.034-55.805-55.805-55.805h-16.334c-30.771 0-55.805 25.034-55.805 55.805v11.788z" fill="#3375e0"/><ellipse cx="1019.612" cy="965.123" fill="#fff" rx="8.53" ry="15.85"/><path d="M1019.612 984.974c-7.143 0-12.53-8.534-12.53-19.85s5.387-19.85 12.53-19.85 12.53 8.534 12.53 19.85-5.387 19.85-12.53 19.85zm0-31.701c-1.314 0-4.53 4.152-4.53 11.85s3.215 11.85 4.53 11.85 4.53-4.152 4.53-11.85-3.215-11.85-4.53-11.85zm69.399-28.681s-8.297 8.195-11.044 23.328c-4.26 23.471 14.954 34.156 31.293 23.48 9.564-6.249 23.041-15.547 20.355-38.627-3.97-34.103-37.317-43.897-67.936-11.135 0 0 13.7 8.902 17.912 19.757" fill="#fff"/><path d="M1096.178 979.545c-4.423 0-8.684-1.214-12.371-3.66-8.373-5.555-12.027-16.276-9.775-28.68a56.273 56.273 0 0 1 1.308-5.58c-4.219-8.978-15.723-16.557-15.844-16.636a4.003 4.003 0 0 1-.74-6.083c16.384-17.53 35.522-24.915 51.189-19.761 13.072 4.301 21.689 16.389 23.642 33.165 3.026 25.995-13.345 36.691-22.14 42.438-4.88 3.188-10.182 4.796-15.271 4.796zm-4.345-52.118c-.114.115-7.472 7.667-9.93 21.208-1.687 9.294.619 16.797 6.328 20.584 5.219 3.463 12.44 3.016 18.842-1.167 8.872-5.797 21.023-13.736 18.569-34.816-1.577-13.549-8.209-23.205-18.196-26.491-11.695-3.847-26.295 1.517-39.665 14.394 3.158 2.48 7.631 6.413 11.195 11.189 3.373-6.716 6.987-10.348 7.225-10.582a4 4 0 0 1 5.633 5.681z" fill="#3375e0"/><path d="M1030.271 889.563s-2.129 15.406 0 31.278c3.42 25.498 28.244 36.619 39.007 17.273 9.35-16.806 18.207-52.752.467-70.025s-58.664-3.877-72.226 47.063c0 0 13.009-6.028 31.934-3.674" fill="#fff"/><path d="M1054.337 951.921c-1.265 0-2.551-.121-3.852-.368-12.161-2.303-22.103-14.714-24.178-30.181a105.775 105.775 0 0 1-.646-6.253c-15.663-1.163-26.356 3.614-26.47 3.667a4.01 4.01 0 0 1-4.248-.581 3.998 3.998 0 0 1-1.289-4.083c11.415-42.875 38.553-53.451 46.599-55.671 12.542-3.461 24.307-.993 32.282 6.772 8.736 8.506 12.581 21.786 11.119 38.404-1.3 14.777-6.473 28.508-10.881 36.432-4.238 7.617-10.949 11.863-18.438 11.863zm-24.071-66.358a4.002 4.002 0 0 1 3.968 4.546c-.021.149-2.025 15.088.002 30.2 1.894 14.117 10.522 22.018 17.738 23.385 5.618 1.061 10.519-1.609 13.81-7.525 8.35-15.008 17.265-49.545 1.172-65.214-5.887-5.731-14.842-7.477-24.573-4.792-16.941 4.675-31.108 20.448-38.804 42.811 5.176-1.287 12.686-2.466 21.749-1.897-.104-10.021.919-17.609.982-18.061a4 4 0 0 1 3.957-3.452z" fill="#3375e0"/><path d="M957.497 911.477s1.806 12.341 9.445 31.68c8.736 22.117 40.248 23.9 44.14-3.643 2.496-17.662 2.407-33.466-6.541-49.865-18.052-33.086-86.517 5.919-56.172 81.741 0 0 6.821-23.47 16.858-32.719" fill="#fff"/><path d="M948.368 975.39a4 4 0 0 1-3.713-2.514c-20.751-51.853 3.064-85.435 24.135-95.356 16.033-7.548 31.812-3.445 39.263 10.212 10.042 18.406 9.295 36.034 6.99 52.341-1.874 13.26-10.215 22.348-21.77 23.717-12.069 1.43-23.878-5.685-29.317-17.45-5.739 8.292-10.264 21.068-11.745 26.166a4.002 4.002 0 0 1-3.843 2.884zm36.173-93.559c-4.288 0-8.629 1.177-12.344 2.926-16.896 7.956-35.622 33.898-23.802 74.5 2.798-6.993 6.995-15.779 12.209-21.584-5.544-15.516-6.999-25.16-7.066-25.617a4 4 0 0 1 7.916-1.162c.02.131 1.573 10.276 7.476 26.263a215.22 215.22 0 0 0 1.731 4.53c4.337 10.978 14.281 15.035 21.669 14.158 8.017-.949 13.407-7.106 14.79-16.891 2.44-17.271 2.338-31.939-6.092-47.39-3.899-7.146-10.135-9.733-16.489-9.733z" fill="#3375e0"/><path d="M904.02 958.849c-7.081 25.982 50.071 42.53 47.998 6.275-1.87-32.7-38.661-40.532-47.998-6.275z" fill="#fff"/><path d="M932.888 990.059c-8.144 0-17.039-2.988-23.822-8.495-8.005-6.499-11.25-15.162-8.905-23.767 2.323-8.523 6.473-15.346 12.001-19.73 5.174-4.104 11.511-5.996 17.851-5.333 14.311 1.501 25.001 14.727 25.999 32.162.603 10.542-3.351 18.541-11.132 22.523-3.487 1.784-7.632 2.641-11.991 2.641zM907.879 959.9c-2.019 7.406 3.036 12.86 6.229 15.453 7.842 6.367 20.01 8.585 27.126 4.943 4.928-2.522 7.213-7.55 6.79-14.944-.628-10.992-6.794-23.398-18.846-24.663-7.555-.786-17.109 3.842-21.299 19.211zM466.26 451.922a4 4 0 0 1-3.639-2.335c-8.06-17.593-7.922-31.98-7.912-32.583a4 4 0 0 1 3.998-3.935h.066a4 4 0 0 1 3.935 4.064c-.001.123-.075 13.272 7.187 29.122a4 4 0 0 1-3.635 5.667z" fill="#3375e0"/></svg></g><g transform="translate(1999.4117647058822 1117.0588235294117) rotate(0.0 408.52941176470597 118.23529411764707) scale(1.7633995194260232 1.7658128097859416)"><svg width="463.343" height="133.916" viewBox="0 0 463.343 133.916"><rect fill="#fff" height="125.916" rx="25" width="455.343" x="4" y="4"/><path d="M434.342 133.916H29c-15.991 0-29-13.01-29-29V29C0 13.009 13.009 0 29 0h405.342c15.991 0 29 13.009 29 29v75.916c0 15.991-13.009 29-29 29zM29 8C17.42 8 8 17.42 8 29v75.916c0 11.58 9.42 21 21 21h405.342c11.58 0 21-9.42 21-21V29c0-11.58-9.42-21-21-21z" fill="#3375e0"/><circle cx="63.586" cy="66.958" fill="#a8cffb" r="19.618"/><g fill="#3375e0"><path d="M63.586 90.576c-13.023 0-23.618-10.595-23.618-23.618S50.563 43.34 63.586 43.34s23.618 10.595 23.618 23.618-10.595 23.618-23.618 23.618zm0-39.236c-8.612 0-15.618 7.006-15.618 15.618s7.006 15.618 15.618 15.618 15.618-7.006 15.618-15.618S72.198 51.34 63.586 51.34zM322.028 101c-2.305 0-4.552-.951-6.361-2.733-2.698-2.659-3.974-6.703-3.25-10.301 1.123-5.586 5.548-9.303 9.278-11.917a86.932 86.932 0 0 1 6.321-4.035c-.358-2.502-1.043-4.203-2.09-5.192-1.473-1.391-4.343-1.674-6.981-.687-3.042 1.138-5.771 3.578-8.409 5.938a4 4 0 1 1-5.333-5.963c3.041-2.72 6.488-5.803 10.939-7.468 5.559-2.081 11.556-1.152 15.278 2.365 1.886 1.782 3.202 4.151 3.986 7.191a86.696 86.696 0 0 1 9.92-3.815c1.857-.585 4.04-1.181 6.444-.834 1.905.276 4.043 1.107 5.916 3.098a19.506 19.506 0 0 1 4.359-4.707c.685-.526 2.773-2.132 5.507-2.159h.079c5.01 0 7.231 4.519 8.561 7.225.319.648.62 1.261.912 1.759 3.038 5.191 12.045 4.039 17.359 1.999 1.451-.558 2.904-1.176 4.441-1.83 6.408-2.727 13.669-5.82 21.341-4.11a4 4 0 0 1-1.738 7.808c-5.158-1.146-10.654 1.188-16.47 3.663-1.535.653-3.122 1.328-4.706 1.937-9.736 3.74-21.9 3.512-27.132-5.425-.438-.749-.819-1.523-1.187-2.271-.403-.82-1.042-2.119-1.5-2.657-.133.075-.327.2-.594.405-3.177 2.44-4.984 6.592-4.604 10.579a4 4 0 0 1-7.955.841c-.562-4.829-1.993-7.985-3.734-8.237-.733-.109-1.878.226-2.891.545a78.675 78.675 0 0 0-11.449 4.631c-.111 6.132-1.745 12.227-4.763 17.58-.781 1.385-3.157 5.601-7.705 6.584a8.444 8.444 0 0 1-1.789.192zm5.719-19.399c-.491.327-.978.661-1.462 1-2.509 1.758-5.462 4.137-6.026 6.941-.193.96.247 2.261 1.023 3.026.188.185.551.481.844.42.311-.067 1.169-.464 2.426-2.693a29.087 29.087 0 0 0 3.194-8.694zm-123.108-.779a8.536 8.536 0 0 1-4.629-1.334c-3.193-2.028-4.165-5.507-4.875-8.048-.1-.358-.199-.714-.304-1.062-.265-.879-.669-1.542-.971-1.904-.356.471-.814 1.301-1.116 1.85a32.594 32.594 0 0 1-1.022 1.764c-3.738 5.875-11.668 8.296-18.05 5.515-2.634-1.148-4.797-3.092-6.307-5.452-5.48 5.994-13.491 9.844-21.855 8.056-4.768-1.02-9.115-3.852-12.358-7.827a133.433 133.433 0 0 1-3.264 3.342 4 4 0 1 1-5.632-5.682 113.915 113.915 0 0 0 4.731-4.949 25.934 25.934 0 0 1-.536-1.602c-2.596-8.688-.623-17.259 1.49-22.92 1-2.68 3.391-6.202 6.837-7.311 2.036-.654 4.127-.364 5.889.817 2.013 1.35 2.834 3.413 3.277 4.847 3.062 9.917-1.238 19.231-7.445 27.249 2.189 3.181 5.323 5.494 8.683 6.212 7.834 1.678 15.639-5.016 18.376-12.177a4 4 0 0 1 7.607 2.439c-.75 2.874.979 6.437 3.703 7.624 2.72 1.186 6.509.029 8.104-2.477.265-.417.512-.872.764-1.328 1.223-2.221 3.071-5.577 7.072-6.148 4.211-.601 8.105 2.516 9.683 7.756.12.397.234.805.349 1.216.381 1.365.856 3.064 1.458 3.446.586.375 2.686-.472 4.646-2.64l.61-.68c2.558-2.863 6.05-6.773 11.225-6.773l.171.001a4 4 0 0 1 3.716 2.699c1.657 4.82 3.127 5.963 4.069 6.074 1.066.125 2.575-.87 4.175-1.922 1.899-1.249 4.053-2.664 6.743-3.18 4.137-.794 7.691.792 10.83 2.19.836.372 1.625.724 2.384 1.012 1.55.588 3.488.675 4.512.203.324-.149.365-.264.392-.34a4 4 0 1 1 7.538 2.68c-.782 2.198-2.362 3.9-4.572 4.922-3.573 1.652-7.875 1.091-10.71.014a53.719 53.719 0 0 1-2.798-1.183c-2.264-1.009-4.4-1.96-6.066-1.641-1.132.217-2.456 1.087-3.858 2.009-2.471 1.624-5.547 3.648-9.499 3.182-4.882-.571-7.654-4.424-9.229-7.706-1.022.812-2.076 1.992-3.056 3.089l-.642.715c-3.166 3.502-6.848 5.363-10.239 5.363zm-66.228-39.168a6.383 6.383 0 0 0-.974 1.711c-1.305 3.497-2.557 8.34-2.144 13.396 2.947-4.906 4.524-10.067 3.118-15.107z"/></g></svg></g></svg>